<mxfile host="app.diagrams.net" agent="Mozilla/5.0 (Windows NT 10.0; Win64; x64) AppleWebKit/537.36 (KHTML, like Gecko) Chrome/135.0.0.0 Safari/537.36" version="26.2.12">
  <diagram name="Página-1" id="Ns4zx31DDEqpTmoTKlRC">
    <mxGraphModel dx="985" dy="546" grid="1" gridSize="10" guides="1" tooltips="1" connect="1" arrows="1" fold="1" page="1" pageScale="1" pageWidth="827" pageHeight="1169" math="0" shadow="0">
      <root>
        <mxCell id="0" />
        <mxCell id="1" parent="0" />
        <mxCell id="IpAvKVVUXLaiy9YmAnh7-14" value="" style="rounded=1;whiteSpace=wrap;html=1;fillColor=#e1d5e7;strokeColor=#9673a6;" vertex="1" parent="1">
          <mxGeometry x="280" y="320" width="400" height="140" as="geometry" />
        </mxCell>
        <mxCell id="IpAvKVVUXLaiy9YmAnh7-10" value="" style="rounded=1;whiteSpace=wrap;html=1;fillColor=#ffe6cc;strokeColor=#d79b00;" vertex="1" parent="1">
          <mxGeometry x="280" y="110" width="400" height="140" as="geometry" />
        </mxCell>
        <mxCell id="IpAvKVVUXLaiy9YmAnh7-12" value="" style="rounded=1;whiteSpace=wrap;html=1;fillColor=#f8cecc;strokeColor=#b85450;" vertex="1" parent="1">
          <mxGeometry x="280" y="210" width="400" height="140" as="geometry" />
        </mxCell>
        <mxCell id="IpAvKVVUXLaiy9YmAnh7-5" style="edgeStyle=orthogonalEdgeStyle;rounded=0;orthogonalLoop=1;jettySize=auto;html=1;exitX=0.5;exitY=1;exitDx=0;exitDy=0;" edge="1" parent="1" source="IpAvKVVUXLaiy9YmAnh7-1" target="IpAvKVVUXLaiy9YmAnh7-3">
          <mxGeometry relative="1" as="geometry" />
        </mxCell>
        <mxCell id="IpAvKVVUXLaiy9YmAnh7-1" value="Creación de cuenta" style="rounded=0;whiteSpace=wrap;html=1;fillColor=#ffe6cc;strokeColor=#d79b00;" vertex="1" parent="1">
          <mxGeometry x="320" y="140" width="120" height="40" as="geometry" />
        </mxCell>
        <mxCell id="IpAvKVVUXLaiy9YmAnh7-19" style="edgeStyle=orthogonalEdgeStyle;rounded=0;orthogonalLoop=1;jettySize=auto;html=1;entryX=0.5;entryY=0;entryDx=0;entryDy=0;" edge="1" parent="1" source="IpAvKVVUXLaiy9YmAnh7-3" target="IpAvKVVUXLaiy9YmAnh7-18">
          <mxGeometry relative="1" as="geometry" />
        </mxCell>
        <mxCell id="IpAvKVVUXLaiy9YmAnh7-3" value="Configuración de cuenta" style="rounded=0;whiteSpace=wrap;html=1;fillColor=#f8cecc;strokeColor=#b85450;" vertex="1" parent="1">
          <mxGeometry x="320" y="260" width="120" height="40" as="geometry" />
        </mxCell>
        <mxCell id="IpAvKVVUXLaiy9YmAnh7-11" value="Administrador" style="text;html=1;align=center;verticalAlign=middle;whiteSpace=wrap;rounded=0;fontStyle=5" vertex="1" parent="1">
          <mxGeometry x="450" y="110" width="60" height="30" as="geometry" />
        </mxCell>
        <mxCell id="IpAvKVVUXLaiy9YmAnh7-13" value="Dueño" style="text;html=1;align=center;verticalAlign=middle;whiteSpace=wrap;rounded=0;fontStyle=5" vertex="1" parent="1">
          <mxGeometry x="450" y="210" width="60" height="30" as="geometry" />
        </mxCell>
        <mxCell id="IpAvKVVUXLaiy9YmAnh7-15" value="&lt;ul style=&quot;forced-color-adjust: none; font-family: Helvetica; font-size: 12px; font-style: normal; font-variant-ligatures: normal; font-variant-caps: normal; font-weight: 400; letter-spacing: normal; orphans: 2; text-align: left; text-indent: 0px; text-transform: none; widows: 2; word-spacing: 0px; -webkit-text-stroke-width: 0px; white-space: normal; text-decoration-thickness: initial; text-decoration-style: initial; text-decoration-color: initial; box-shadow: none !important;&quot;&gt;&lt;li style=&quot;forced-color-adjust: none; box-shadow: none !important;&quot;&gt;&lt;span style=&quot;forced-color-adjust: none; box-shadow: none !important;&quot;&gt;&lt;font style=&quot;color: light-dark(rgb(255, 255, 255), rgb(255, 255, 255));&quot;&gt;Configuración campo&lt;/font&gt;&lt;/span&gt;&lt;/li&gt;&lt;ul style=&quot;forced-color-adjust: none; box-shadow: none !important;&quot;&gt;&lt;li style=&quot;forced-color-adjust: none; box-shadow: none !important;&quot;&gt;&lt;span style=&quot;forced-color-adjust: none; box-shadow: none !important;&quot;&gt;&lt;font style=&quot;color: light-dark(rgb(255, 255, 255), rgb(255, 255, 255));&quot;&gt;Preferencias de mapa&lt;/font&gt;&lt;/span&gt;&lt;/li&gt;&lt;li style=&quot;forced-color-adjust: none; box-shadow: none !important;&quot;&gt;&lt;span style=&quot;forced-color-adjust: none; box-shadow: none !important;&quot;&gt;&lt;font style=&quot;color: light-dark(rgb(255, 255, 255), rgb(255, 255, 255));&quot;&gt;Configuración collares&lt;/font&gt;&lt;/span&gt;&lt;/li&gt;&lt;/ul&gt;&lt;/ul&gt;" style="text;whiteSpace=wrap;html=1;" vertex="1" parent="1">
          <mxGeometry x="440" y="242.5" width="240" height="75" as="geometry" />
        </mxCell>
        <mxCell id="IpAvKVVUXLaiy9YmAnh7-16" value="&lt;div&gt;&lt;br&gt;&lt;/div&gt;&lt;ul style=&quot;forced-color-adjust: none; font-family: Helvetica; font-size: 12px; font-style: normal; font-variant-ligatures: normal; font-variant-caps: normal; font-weight: 400; letter-spacing: normal; orphans: 2; text-align: left; text-indent: 0px; text-transform: none; widows: 2; word-spacing: 0px; -webkit-text-stroke-width: 0px; white-space: normal; text-decoration-thickness: initial; text-decoration-style: initial; text-decoration-color: initial; box-shadow: none !important;&quot;&gt;&lt;ul style=&quot;forced-color-adjust: none; box-shadow: none !important;&quot;&gt;&lt;li style=&quot;forced-color-adjust: none; box-shadow: none !important;&quot;&gt;&lt;span&gt;&lt;font style=&quot;color: light-dark(rgb(255, 255, 255), rgb(255, 255, 255));&quot;&gt;Configuración parcelas&lt;/font&gt;&lt;/span&gt;&lt;/li&gt;&lt;li style=&quot;forced-color-adjust: none; box-shadow: none !important;&quot;&gt;&lt;font style=&quot;color: light-dark(rgb(255, 255, 255), rgb(255, 255, 255));&quot;&gt;Configuración animales&lt;/font&gt;&lt;/li&gt;&lt;/ul&gt;&lt;/ul&gt;" style="text;whiteSpace=wrap;html=1;" vertex="1" parent="1">
          <mxGeometry x="440" y="360" width="240" height="90" as="geometry" />
        </mxCell>
        <mxCell id="IpAvKVVUXLaiy9YmAnh7-17" value="Empleado" style="text;html=1;align=center;verticalAlign=middle;whiteSpace=wrap;rounded=0;fontStyle=5" vertex="1" parent="1">
          <mxGeometry x="450" y="350" width="60" height="30" as="geometry" />
        </mxCell>
        <mxCell id="IpAvKVVUXLaiy9YmAnh7-18" value="Gestión de parámetros" style="rounded=0;whiteSpace=wrap;html=1;fillColor=#e1d5e7;strokeColor=#9673a6;" vertex="1" parent="1">
          <mxGeometry x="320" y="380" width="120" height="40" as="geometry" />
        </mxCell>
      </root>
    </mxGraphModel>
  </diagram>
</mxfile>
